<?xml version="1.0" encoding="UTF-8" standalone="no"?>
<!-- Created with Inkscape (http://www.inkscape.org/) -->

<svg
   xmlns:dc="http://purl.org/dc/elements/1.1/"
   xmlns:cc="http://creativecommons.org/ns#"
   xmlns:rdf="http://www.w3.org/1999/02/22-rdf-syntax-ns#"
   xmlns:svg="http://www.w3.org/2000/svg"
   xmlns="http://www.w3.org/2000/svg"
   xmlns:sodipodi="http://sodipodi.sourceforge.net/DTD/sodipodi-0.dtd"
   xmlns:inkscape="http://www.inkscape.org/namespaces/inkscape"
   width="793.70081"
   height="1122.5197"
   viewBox="0 0 210 297"
   version="1.1"
   id="svg8"
   inkscape:version="0.92.3 (2405546, 2018-03-11)"
   sodipodi:docname="rank1.svg">
  <defs
     id="defs2">
    <style
       id="style4670">.cls-1{fill:#e85454;}.cls-2{fill:#fff;}.cls-3{fill:#ffa840;}.cls-4{fill:#141f38;}.cls-5{opacity:0.14;}.cls-6{fill:#17292d;}</style>
  </defs>
  <sodipodi:namedview
     id="base"
     pagecolor="#ffffff"
     bordercolor="#666666"
     borderopacity="1.0"
     inkscape:pageopacity="0.0"
     inkscape:pageshadow="2"
     inkscape:zoom="0.175"
     inkscape:cx="237.10947"
     inkscape:cy="877.25954"
     inkscape:document-units="px"
     inkscape:current-layer="layer1"
     showgrid="false"
     inkscape:showpageshadow="false"
     units="px"
     showborder="false"
     inkscape:window-width="1536"
     inkscape:window-height="811"
     inkscape:window-x="1352"
     inkscape:window-y="-8"
     inkscape:window-maximized="1" />
  <metadata
     id="metadata5">
    <rdf:RDF>
      <cc:Work
         rdf:about="">
        <dc:format>image/svg+xml</dc:format>
        <dc:type
           rdf:resource="http://purl.org/dc/dcmitype/StillImage" />
        <dc:title></dc:title>
      </cc:Work>
    </rdf:RDF>
  </metadata>
  <g
     inkscape:label="Layer 1"
     inkscape:groupmode="layer"
     id="layer1">
    <g
       id="g4790"
       transform="matrix(0.26458333,0,0,0.26458333,27.414628,17.589194)"
       inkscape:export-xdpi="96.06308"
       inkscape:export-ydpi="96.06308">
      <path
         id="path4705"
         d="m 579.4925,105.26785 c -22.58743,0 -40.86496,-18.277527 -40.86496,-40.864947 0,-22.58743 18.27753,-40.86496 40.86496,-40.86496 80.37319,0 152.0476,-51.04033 178.30469,-126.983763 l 80.21246,-231.70158 c 2.87417,-10.29524 0.47949,-23.38565 -7.34207,-33.72176 -7.74254,-10.33611 -19.71325,-16.24246 -32.64292,-16.24246 H 661.22241 c -22.58743,0 -40.86496,-18.27753 -40.86496,-40.86495 0,-22.58743 18.27753,-40.86495 40.86496,-40.86495 h 136.80225 c 38.87074,0 74.54585,17.7599 97.9315,48.76551 23.38565,31.0056 30.64872,70.19782 19.953,107.51025 L 835.05648,-76.709237 C 797.38444,32.116863 694.66356,105.26785 579.4925,105.26785 Z"
         style="fill:#fe9923;stroke-width:2.72433043"
         inkscape:connector-curvature="0" />
      <g
         id="g4711"
         transform="matrix(2.7243304,0,0,2.7243304,-441.42852,-548.57144)">
        <path
           id="path4707"
           d="M 137.18,240 C 94.905,240 57.2,213.149 43.371,173.203 L 13.928,88.154 C 9.768,73.667 12.434,59.282 21.018,47.9 29.602,36.518 42.698,30 56.965,30 h 50.215 c 8.291,0 15,6.709 15,15 0,8.291 -6.709,15 -15,15 H 56.965 c -4.746,0 -9.141,2.168 -11.982,5.962 -2.871,3.794 -3.75,8.599 -2.461,13.169 l 29.209,84.258 C 81.369,191.265 107.678,210 137.18,210 c 8.291,0 15,6.709 15,15 0,8.291 -6.709,15 -15,15 z"
           style="fill:#fea832"
           inkscape:connector-curvature="0" />
        <path
           id="path4709"
           d="M 326.499,426.499 C 310.301,409.999 301,386.499 301,363.699 V 311.1 c 0,-9.901 -9.302,-17.1 -18.9,-14.399 -8.101,2.098 -17.098,3.3 -26.1,3.3 -9.002,0 -17.999,-1.201 -26.1,-3.3 C 220.302,294 211,301.199 211,311.1 v 52.599 c 0,22.8 -9.302,46.3 -25.499,62.8 -9.599,9.3 -3,25.501 10.499,25.501 h 120 c 13.499,0 20.098,-16.201 10.499,-25.501 z"
           style="fill:#fea832"
           inkscape:connector-curvature="0" />
      </g>
      <path
         id="path4713"
         d="M 664.64961,-548.57144 H -152.6495 c -25.34172,0 -44.13688,22.0698 -40.04766,46.58605 l 80.09532,534.513623 c 27.793615,185.526897 186.346919,317.929357 368.6019,317.929357 183.8923,0 340.80828,-134.03706 368.6019,-317.929357 l 80.09531,-534.513623 c 4.08922,-24.51625 -14.70593,-46.58605 -40.04766,-46.58605 z"
         style="fill:#fedb41;stroke-width:2.72433043"
         inkscape:connector-curvature="0" />
      <path
         id="path4715"
         d="m 448.06263,613.35276 c 26.15084,25.3363 8.17299,69.4731 -28.60275,69.4731 H 256.00006 V 268.72768 c 24.5217,0 49.03522,-3.27193 71.10502,-8.9903 26.14812,-7.35569 51.48984,12.25677 51.48984,39.23036 V 442.2648 c 0,62.11476 25.34173,126.13646 69.46771,171.08796 z"
         style="fill:#fe9923;stroke-width:2.72433043"
         inkscape:connector-curvature="0" />
      <path
         id="path4717"
         d="m 479.94001,-223.28912 -125.04948,-18.79515 -56.38819,-112.78728 c -7.36387,-16.34598 -26.15902,-23.69895 -42.50228,-20.43248 -13.06862,1.63732 -24.5217,8.17027 -30.24007,20.43248 l -56.39909,112.78728 -125.049486,18.79515 c -33.501091,4.9038 -46.5724283,45.76875 -22.876203,69.4677 l 90.720199,88.271033 -21.249774,124.23219 c -5.726542,33.50654 29.430944,58.842807 59.660114,43.314127 l 105.43431,-55.576337 6.54384,-3.26647 111.14178,58.842807 c 30.25097,15.52868 65.38665,-9.807587 59.66011,-43.314127 l -21.24977,-124.23219 90.72837,-88.271033 c 23.70712,-23.69895 10.62761,-64.5639 -22.88438,-69.4677 z"
         style="fill:#fea832;stroke-width:2.72433043"
         inkscape:connector-curvature="0" />
      <path
         id="path4719"
         d="M 704.69727,-501.98539 624.60196,32.528233 C 596.80834,216.42053 439.89236,350.45759 256.00006,350.45759 v -899.02903 h 408.64955 c 25.34173,0 44.13688,22.0698 40.04766,46.58605 z"
         style="fill:#fcbf29;stroke-width:2.72433043"
         inkscape:connector-curvature="0" />
      <path
         id="path4721"
         d="m 502.82711,-153.81869 -90.72837,88.271033 21.24978,124.23219 c 5.72654,33.50654 -29.41187,58.842807 -59.66011,43.314127 L 262.5439,43.153123 l -6.54384,3.26647 V -375.30403 c 16.34326,-3.26647 35.13841,4.0865 42.50228,20.43248 l 56.38819,112.78728 125.04948,18.79515 c 33.51199,4.9038 46.5915,45.76875 22.8871,69.47043 z"
         style="fill:#fe9923;stroke-width:2.72433043"
         inkscape:connector-curvature="0" />
      <path
         id="path4723"
         d="M 419.45988,601.09596 H 92.540234 c -67.841275,0 -122.594867,54.7563 -122.594867,122.5949 v 81.7299 c 0,22.8817 17.977856,40.865 40.864956,40.865 H 501.18979 c 22.8871,0 40.86496,-17.9833 40.86496,-40.865 v -81.7299 c 0,-67.8386 -54.75359,-122.5949 -122.59487,-122.5949 z"
         style="fill:#787780;stroke-width:2.72433043"
         inkscape:connector-curvature="0" />
      <path
         id="path4725"
         d="m 542.05475,723.69086 v 81.7299 c 0,22.8817 -17.97786,40.865 -40.86496,40.865 H 256.00006 v -245.1898 h 163.45982 c 67.84128,0 122.59487,54.7563 122.59487,122.5949 z"
         style="fill:#57555c;stroke-width:2.72433043"
         inkscape:connector-curvature="0" />
      <g
         id="g4727" />
      <g
         id="g4729" />
      <g
         id="g4731" />
      <g
         id="g4733" />
      <g
         id="g4735" />
      <g
         id="g4737" />
      <g
         id="g4739" />
      <g
         id="g4741" />
      <g
         id="g4743" />
      <g
         id="g4745" />
      <g
         id="g4747" />
      <g
         id="g4749" />
      <g
         id="g4751" />
      <g
         id="g4753" />
      <g
         id="g4755" />
    </g>
    <g
       id="g4703"
       transform="matrix(0.23171353,0.12772306,-0.12772306,0.23171353,-34.647176,-183.54745)"
       inkscape:export-xdpi="96.06308"
       inkscape:export-ydpi="96.06308">
      <path
         id="path4676"
         d="m 287.86,394.14 38.14,104.75 28,-34.6 a 25.28,25.28 0 0 1 24.45,-8.89 l 43.91,9 -41.31,-114 a 191.38,191.38 0 0 1 -93.19,43.74 z"
         class="cls-1"
         inkscape:connector-curvature="0"
         style="fill:#e85454" />
      <path
         id="path4678"
         d="M 130.92,350.34 89.26,464 133.49,455.44 A 25.25,25.25 0 0 1 158,464.3 l 28,34.59 38.3,-104.72 a 191.38,191.38 0 0 1 -93.38,-43.83 z"
         class="cls-1"
         inkscape:connector-curvature="0"
         style="fill:#e85454" />
      <path
         id="path4680"
         d="m 256,396.8 c -105.87,0 -192,-86.13 -192,-192 0,-105.87 86.13,-192 192,-192 105.87,0 192,86.13 192,192 0,105.87 -86.13,192 -192,192 z"
         class="cls-2"
         inkscape:connector-curvature="0"
         style="fill:#ffffff" />
      <path
         id="path4682"
         d="M 256,345.6 C 178.36,345.6 115.2,282.44 115.2,204.8 115.2,127.16 178.36,64 256,64 c 77.64,0 140.8,63.16 140.8,140.8 0,77.64 -63.16,140.8 -140.8,140.8 z"
         class="cls-3"
         inkscape:connector-curvature="0"
         style="fill:#ffa840" />
      <path
         id="path4684"
         d="M 396,354.3 A 204.22,204.22 0 0 0 460.8,204.8 C 460.8,91.69 369.11,0 256,0 142.89,0 51.2,91.69 51.2,204.8 A 204.22,204.22 0 0 0 116,354.3 L 77.57,460 a 12.51,12.51 0 0 0 11.67,16.78 12.88,12.88 0 0 0 2.44,-0.24 L 135.94,468 a 12.49,12.49 0 0 1 12.08,4.4 l 28.38,35 a 12.49,12.49 0 0 0 21.45,-3.6 l 34.76,-95.51 a 205.2,205.2 0 0 0 46.77,0 l 34.76,95.51 a 12.49,12.49 0 0 0 21.45,3.6 l 28.38,-35 a 12.49,12.49 0 0 1 12.08,-4.4 l 44.24,8.57 a 12.88,12.88 0 0 0 2.44,0.24 12.51,12.51 0 0 0 11.7,-16.81 z m -214.25,119 -13.81,-17 A 38.1,38.1 0 0 0 131.1,442.89 L 109.54,447 137,371.51 a 203.86,203.86 0 0 0 70,32.19 z M 76.8,204.8 C 76.8,106 157.19,25.6 256,25.6 354.81,25.6 435.2,106 435.2,204.8 435.2,303.6 354.81,384 256,384 157.19,384 76.8,303.61 76.8,204.8 Z m 304.13,238 a 38.1,38.1 0 0 0 -36.84,13.41 l -13.81,17 L 305,403.69 A 203.85,203.85 0 0 0 375,371.5 L 402.46,447 Z M 256,51.2 A 153.6,153.6 0 1 0 409.6,204.8 153.6,153.6 0 0 0 256,51.2 Z m 0,281.6 a 128,128 0 1 1 128,-128 128.14,128.14 0 0 1 -128,128 z M 281.6,148 v 113.58 c 0,5.45 -1.76,7.22 -7.21,7.22 h -14.25 c -5.45,0 -7.21,-1.76 -7.21,-7.22 V 176 l -17.06,9.68 c -4.76,2.82 -8.45,1.94 -10.91,-2.81 l -6.16,-11.09 c -2.28,-4.75 -1.4,-6.86 3.52,-9.68 l 31.84,-18.47 a 19,19 0 0 1 10.2,-2.82 h 10 c 5.48,-0.01 7.24,1.75 7.24,7.19 z"
         class="cls-4"
         inkscape:connector-curvature="0"
         style="fill:#141f38" />
      <g
         id="g4688"
         class="cls-5"
         style="opacity:0.13999999">
        <path
           id="path4686"
           d="M 281.6,345.6 A 128,128 0 1 1 409.37,213.08 c 0.15,-2.74 0.23,-5.5 0.23,-8.28 A 153.61,153.61 0 1 0 353.39,323.57 127.39,127.39 0 0 1 281.6,345.6 Z"
           class="cls-6"
           inkscape:connector-curvature="0"
           style="fill:#17292d" />
      </g>
    </g>
  </g>
</svg>
